<svg width="50" height="50" viewBox="0 0 50 50" fill="none" xmlns="http://www.w3.org/2000/svg">
<path d="M3.97211 7.47363C3.97211 7.47363 7.22068 4.54085 11.0783 3.23522C12.4879 2.75687 15.6154 1.92566 18.4071 1.99231C21.9954 2.07857 23.5103 2.77648 23.483 2.81177C18.2744 6.26602 19.0436 11.7395 20.2735 14.4253C22.6006 19.4792 29.1485 22.4865 32.9983 25.9368C38.3671 30.7398 38.0742 36.5897 36.5124 40.4439C35.3957 43.1885 33.6309 44.6745 31.3662 46.082C42.8143 43.5021 51.9196 31.6965 49.6511 19.0832C48.7673 14.0927 46.2828 9.52931 42.5764 6.08842C38.8699 2.64752 34.1448 0.517877 29.1211 0.024056C32.3541 2.40008 34.197 4.41931 36.2352 8.11273C38.8395 12.8452 38.4061 16.417 38.4061 16.417C37.7736 14.9899 37.2894 13.7038 36.364 11.8336C35.2737 9.57225 33.823 7.5049 32.0691 5.71318C28.3012 1.6708 25.7242 0.545525 21.2106 0.102471C16.0176 -0.395474 11.5625 0.996423 8.99724 2.58044C5.67839 4.61927 3.76127 7.35601 3.97211 7.46187" fill="#222222"/>
<path d="M46.0272 42.5262C46.0272 42.5262 42.7748 45.4589 38.921 46.7607C37.5115 47.239 34.384 48.0741 31.5922 48.0075C28.004 47.9173 26.489 47.2037 26.5163 47.1841C31.7211 43.7338 30.9558 38.2564 29.722 35.5706C27.4027 30.5245 20.8509 27.5133 16.9971 24.0669C11.6323 19.2639 11.9212 13.414 13.483 9.55984C14.5997 6.81526 16.3646 5.32927 18.6292 3.92169C7.18505 6.51336 -1.9203 18.319 0.348231 30.9284C1.23482 35.9168 3.72033 40.4778 7.42639 43.9169C11.1325 47.3561 15.8561 49.485 20.8782 49.9797C17.6453 47.5997 15.8023 45.5805 13.7603 41.891C11.156 37.1586 11.5894 33.5867 11.5894 33.5867C12.2219 35.0139 12.71 36.2999 13.6314 38.1662C14.7208 40.4263 16.1672 42.4945 17.9147 44.2905C21.6982 48.329 24.279 49.4543 28.7888 49.8973C33.9779 50.3953 38.4329 49.0034 41.0021 47.4194C44.3171 45.3727 46.2381 42.632 46.0272 42.5262Z" fill="#222222"/>
</svg>
